<?xml version="1.0" standalone="no"?>
<!DOCTYPE svg PUBLIC "-//W3C//DTD SVG 20010904//EN"
 "http://www.w3.org/TR/2001/REC-SVG-20010904/DTD/svg10.dtd">
<svg version="1.0" xmlns="http://www.w3.org/2000/svg"
 width="541.000000pt" height="529.000000pt" viewBox="0 0 541.000000 529.000000"
 preserveAspectRatio="xMidYMid meet">

<g transform="translate(0.000000,529.000000) scale(0.100000,-0.100000)"
fill="#000000" stroke="none">
<path d="M127 5283 c-4 -3 -7 -1171 -7 -2595 l0 -2588 2590 0 2590 0 0 2595 0
2595 -2583 0 c-1421 0 -2587 -3 -2590 -7z m5161 -2585 l-3 -2583 -2570 -3
-2570 -2 3 2585 2 2585 2570 0 2570 0 -2 -2582z"/>
<path d="M2445 4910 c-22 -5 -76 -14 -120 -19 -104 -13 -196 -30 -215 -40 -9
-5 -36 -12 -60 -16 -24 -4 -51 -11 -60 -15 -8 -5 -55 -23 -105 -40 -160 -58
-438 -206 -548 -293 -159 -125 -356 -317 -430 -418 -84 -115 -116 -163 -166
-247 -32 -53 -71 -126 -88 -162 -66 -141 -83 -179 -83 -190 0 -7 -6 -26 -14
-43 -8 -18 -22 -59 -31 -92 -9 -33 -23 -80 -30 -105 -16 -56 -41 -190 -55
-295 -13 -99 -13 -429 0 -504 28 -169 45 -253 61 -316 18 -71 63 -214 79 -250
5 -11 18 -42 30 -70 83 -197 239 -443 381 -600 151 -167 253 -257 429 -376
104 -70 146 -95 230 -137 30 -15 57 -30 58 -34 2 -5 9 -8 15 -8 7 -1 30 -9 52
-20 39 -19 297 -103 365 -120 19 -5 73 -15 120 -24 47 -8 117 -20 155 -27 93
-17 449 -17 540 -1 39 7 108 20 155 28 47 8 99 19 115 24 141 40 182 52 197
61 10 5 23 9 29 9 32 0 369 169 469 236 363 242 655 590 829 989 12 28 26 59
31 70 16 38 68 200 85 265 9 36 21 81 26 100 13 48 27 145 39 275 9 93 14 113
33 130 73 67 75 147 3 214 -38 36 -111 40 -155 9 -44 -29 -69 -73 -70 -119 -1
-29 8 -46 40 -83 l41 -47 -5 -87 c-13 -216 -80 -495 -159 -672 -63 -139 -135
-277 -161 -309 -6 -7 -16 -22 -22 -32 -40 -73 -176 -241 -279 -347 -69 -72
-249 -226 -281 -242 -5 -3 -44 -27 -85 -54 -103 -68 -176 -108 -285 -156 -27
-12 -64 -28 -82 -36 -17 -8 -38 -14 -46 -14 -9 0 -18 -4 -21 -9 -3 -5 -23 -12
-43 -16 -21 -4 -42 -10 -48 -15 -18 -14 -244 -62 -385 -82 -198 -27 -511 -12
-730 35 -71 16 -233 62 -265 76 -11 5 -42 17 -70 27 -80 28 -282 133 -385 200
-83 53 -270 205 -340 274 -96 97 -216 247 -302 380 -69 107 -208 388 -208 422
0 8 -4 18 -9 24 -4 5 -14 29 -20 54 -7 25 -19 70 -28 100 -97 356 -97 784 0
1140 9 30 21 75 28 100 6 25 16 49 20 55 5 5 9 16 9 25 0 8 6 26 13 40 7 14
21 48 31 75 11 28 32 74 47 103 16 28 43 78 60 110 43 77 121 193 195 288 97
124 335 349 449 424 148 97 333 197 455 245 25 9 54 21 65 25 11 5 54 18 95
30 41 11 91 25 110 31 102 29 410 68 540 68 103 0 352 -28 465 -53 125 -27
170 -38 180 -46 6 -4 26 -11 45 -15 19 -4 41 -11 50 -16 8 -4 47 -20 85 -34
82 -31 146 -61 195 -91 19 -11 67 -38 105 -59 39 -21 79 -46 90 -55 11 -10 45
-35 76 -56 90 -61 147 -110 254 -218 93 -94 119 -123 206 -231 38 -47 146
-214 174 -267 11 -21 23 -38 28 -38 10 0 0 19 -76 145 -99 165 -181 269 -322
410 -197 198 -357 311 -610 434 -129 63 -171 81 -183 81 -5 0 -23 7 -38 15
-16 8 -39 15 -51 15 -12 0 -24 4 -27 9 -4 5 -25 12 -48 16 -23 4 -49 11 -58
16 -16 9 -80 21 -230 46 -108 17 -483 26 -545 13z"/>
<path d="M2570 4468 c-85 -4 -173 -12 -195 -17 -22 -6 -60 -13 -85 -16 -25 -4
-56 -10 -70 -15 -14 -5 -58 -18 -99 -30 -40 -13 -85 -29 -100 -36 -14 -8 -31
-14 -38 -14 -17 0 -242 -117 -280 -146 -17 -13 -35 -24 -38 -24 -4 0 -26 -15
-49 -32 -22 -18 -50 -40 -60 -48 -35 -27 -178 -163 -221 -210 -137 -150 -242
-317 -332 -530 -25 -60 -30 -73 -48 -135 -9 -33 -22 -73 -27 -90 -9 -28 -15
-61 -37 -189 -8 -44 -18 -63 -49 -94 -39 -39 -57 -86 -46 -119 33 -100 112
-139 199 -97 84 39 96 160 24 228 -24 21 -23 48 5 181 36 172 50 215 128 384
83 182 177 312 347 482 69 69 147 140 174 157 26 18 67 45 91 62 112 76 393
200 454 200 10 0 22 4 28 9 41 39 473 65 659 41 93 -12 270 -52 310 -69 11 -5
71 -31 134 -57 388 -163 722 -492 881 -869 12 -27 25 -59 30 -70 10 -21 30
-80 50 -150 25 -84 42 -186 57 -332 14 -138 14 -166 0 -295 -17 -147 -31 -234
-47 -278 -5 -14 -18 -59 -30 -100 -51 -175 -166 -388 -295 -546 -46 -57 -170
-182 -235 -237 -129 -109 -379 -255 -502 -292 -29 -9 -62 -21 -73 -26 -41 -18
-217 -56 -325 -69 -93 -11 -280 -11 -380 0 -117 13 -224 32 -234 41 -6 5 -18
9 -28 9 -22 0 -184 53 -247 81 -98 43 -113 51 -193 101 -125 77 -147 93 -259
191 -79 68 -259 265 -259 282 0 9 -44 70 -52 73 -5 2 -8 8 -8 13 0 5 -12 28
-26 51 -14 23 -41 71 -60 107 -22 44 -34 58 -34 44 0 -13 5 -23 10 -23 6 0 10
-6 10 -13 0 -7 10 -30 21 -52 49 -92 72 -131 85 -146 8 -8 14 -19 14 -23 0
-18 130 -175 219 -264 86 -86 249 -222 266 -222 4 0 21 -10 38 -23 53 -37 68
-45 172 -97 55 -27 108 -50 117 -50 9 0 20 -4 23 -10 3 -5 13 -10 22 -10 8 0
29 -6 46 -14 70 -32 247 -65 427 -81 131 -11 176 -11 290 0 183 19 328 52 465
105 122 48 330 162 405 223 15 12 40 31 56 42 31 20 244 231 283 279 104 128
236 368 295 536 74 214 111 522 87 724 -30 243 -81 427 -174 626 -13 29 -126
219 -138 234 -5 6 -31 40 -58 76 -177 234 -500 472 -771 569 -36 13 -74 27
-85 31 -33 14 -104 31 -250 61 -90 18 -227 24 -385 17z"/>
<path d="M2720 3883 c0 -49 -3 -291 -7 -539 -5 -337 -3 -453 5 -458 9 -5 12
128 12 538 0 300 -2 546 -5 546 -3 0 -5 -39 -5 -87z"/>
<path d="M4671 3630 c0 -8 4 -22 9 -30 12 -18 12 -2 0 25 -6 13 -9 15 -9 5z"/>
<path d="M4701 3554 c0 -11 3 -14 6 -6 3 7 2 16 -1 19 -3 4 -6 -2 -5 -13z"/>
<path d="M1282 3448 c3 -7 18 -16 34 -20 49 -13 100 -77 175 -223 39 -77 86
-165 103 -195 17 -30 40 -72 51 -92 l20 -38 73 0 74 0 -48 88 c-77 140 -164
319 -164 335 0 9 -4 19 -10 22 -17 11 -11 60 10 83 14 14 33 22 55 22 24 0 35
5 35 15 0 13 -30 15 -206 15 -156 0 -205 -3 -202 -12z"/>
<path d="M2182 3448 c3 -7 22 -14 44 -16 21 -2 44 -8 51 -14 18 -14 16 -77 -2
-124 -27 -67 -31 -76 -111 -239 -44 -88 -80 -163 -82 -167 -2 -5 3 -8 11 -8
20 0 31 18 138 226 134 261 180 324 235 324 15 0 24 6 24 15 0 13 -24 15 -156
15 -120 0 -155 -3 -152 -12z"/>
<path d="M2932 3448 c3 -7 19 -16 37 -21 53 -13 95 -65 157 -192 21 -44 73
-142 114 -217 l75 -138 68 0 c42 0 67 4 67 11 0 6 -14 36 -31 67 -62 112 -146
278 -162 322 -20 53 -22 126 -5 136 7 4 28 10 47 13 19 4 36 12 39 19 3 9 -42
12 -203 12 -157 0 -206 -3 -203 -12z"/>
<path d="M3830 3445 c0 -11 11 -15 38 -15 43 0 54 -6 71 -38 10 -19 10 -31 1
-55 -33 -89 -81 -195 -142 -317 -37 -74 -65 -136 -63 -138 10 -11 34 9 52 45
216 424 268 503 329 503 15 0 24 6 24 15 0 13 -24 15 -155 15 -131 0 -155 -2
-155 -15z"/>
<path d="M1714 2727 l-30 -47 -23 40 c-23 40 -41 52 -41 26 0 -8 6 -21 13 -28
13 -14 40 -66 43 -83 1 -5 2 -16 3 -23 0 -7 6 -10 12 -7 6 4 8 14 5 22 -6 14
15 61 42 95 8 9 12 25 10 35 -3 14 -11 6 -34 -30z"/>
<path d="M2150 2757 c-58 -29 -58 -116 -1 -150 36 -21 55 -21 86 -1 29 19 36
74 10 74 -10 0 -15 -10 -15 -30 0 -28 -3 -30 -34 -30 -57 0 -88 67 -49 105 12
13 28 16 60 12 45 -5 56 5 24 23 -26 13 -50 13 -81 -3z"/>
<path d="M2422 2757 c-19 -24 -73 -150 -66 -156 3 -3 13 4 21 17 23 33 113 30
113 -4 0 -8 7 -14 16 -14 9 0 14 3 12 8 -4 8 -20 42 -50 109 -23 50 -32 58
-46 40z m33 -87 c-6 -10 -45 -1 -45 11 0 5 5 18 12 28 11 18 12 18 25 -6 7
-14 11 -29 8 -33z"/>
<path d="M2832 2725 l-31 -49 -12 27 c-7 15 -16 27 -21 27 -4 0 -8 7 -8 15 0
8 -7 15 -16 15 -13 0 -10 -11 15 -55 17 -30 31 -63 31 -74 0 -11 5 -23 10 -26
6 -4 10 5 10 19 0 14 14 48 31 76 17 27 29 56 26 62 -2 7 -18 -9 -35 -37z"/>
<path d="M3023 2757 c-5 -6 -17 -30 -27 -52 -9 -22 -24 -53 -33 -68 -19 -36
-9 -47 17 -19 29 31 92 30 113 0 31 -46 26 -8 -7 65 -38 81 -48 94 -63 74z
m32 -86 c-6 -11 -45 -2 -45 11 0 5 5 19 11 30 11 21 12 21 26 -5 8 -15 11 -31
8 -36z"/>
<path d="M3200 2755 c0 -8 9 -15 20 -15 11 0 20 -6 21 -12 0 -7 1 -37 2 -67 1
-33 7 -56 15 -58 9 -4 12 14 12 66 0 67 1 70 25 73 50 6 29 23 -32 26 -52 2
-63 0 -63 -13z"/>
<path d="M3425 2748 c-10 -38 -1 -141 12 -145 6 -2 13 6 15 19 4 33 41 35 66
4 11 -15 25 -26 31 -26 16 0 14 10 -6 32 -15 17 -15 19 0 36 40 44 9 93 -62
100 -46 4 -50 3 -56 -20z m103 -37 c4 -28 -12 -41 -50 -41 -25 0 -28 3 -28 36
0 35 1 35 38 32 30 -2 38 -7 40 -27z"/>
<path d="M1860 2690 c0 -67 1 -70 30 -85 40 -21 53 -19 84 11 22 23 26 35 26
85 0 46 -3 59 -15 59 -12 0 -15 -13 -15 -58 0 -64 -11 -82 -51 -82 -31 0 -39
19 -39 93 0 26 -4 47 -10 47 -6 0 -10 -30 -10 -70z"/>
<path d="M3712 2748 c-7 -7 -12 -15 -12 -20 0 -4 -12 -32 -26 -63 -27 -57 -26
-86 2 -47 22 31 86 31 107 0 23 -35 32 -14 13 29 -50 110 -61 124 -84 101z
m37 -50 c11 -28 5 -39 -17 -35 -19 3 -24 14 -16 40 7 24 23 21 33 -5z"/>
<path d="M1827 2473 c-4 -3 -7 -63 -7 -132 -1 -256 -31 -349 -113 -351 -10 0
-17 -5 -15 -11 3 -9 269 -15 388 -9 21 1 9 20 -13 20 -12 0 -37 12 -55 28 -29
25 -33 35 -47 129 -8 57 -15 155 -15 218 l0 115 -58 0 c-32 0 -62 -3 -65 -7z"/>
<path d="M3467 2298 c-3 -112 -10 -198 -18 -221 -16 -46 -61 -87 -97 -87 -18
0 -23 -3 -15 -11 16 -16 391 -18 398 -1 2 7 -4 12 -16 12 -29 0 -68 28 -87 64
-13 25 -18 70 -22 226 l-5 195 -66 3 -67 3 -5 -183z"/>
<path d="M2708 1990 c-2 -264 -1 -485 0 -490 2 -6 8 -10 13 -10 5 0 9 200 9
490 0 314 -4 490 -10 490 -6 0 -11 -175 -12 -480z"/>
<path d="M178 123 c12 -2 32 -2 45 0 12 2 2 4 -23 4 -25 0 -35 -2 -22 -4z"/>
</g>
</svg>
